<svg xmlns="http://www.w3.org/2000/svg" xmlns:xlink="http://www.w3.org/1999/xlink" width="500" zoomAndPan="magnify" viewBox="0 0 375 374.999991" height="500" preserveAspectRatio="xMidYMid meet" version="1.0"><defs><clipPath id="d1f1d74821"><path d="M 85.445312 4.84375 L 289.554688 4.84375 L 289.554688 370.800781 L 85.445312 370.800781 Z M 85.445312 4.84375 " clip-rule="nonzero"/></clipPath><clipPath id="4c972f9222"><path d="M 187.5 4.84375 L 289.554688 187.5 L 187.5 370.15625 L 85.445312 187.5 Z M 187.5 4.84375 " clip-rule="nonzero"/></clipPath><clipPath id="7106aa4206"><path d="M 85.445312 4.84375 L 289.445312 4.84375 L 289.445312 370.09375 L 85.445312 370.09375 Z M 85.445312 4.84375 " clip-rule="nonzero"/></clipPath><clipPath id="123449a1cb"><path d="M 187.5 4.84375 L 289.550781 187.496094 L 187.5 370.152344 L 85.445312 187.496094 Z M 187.5 4.84375 " clip-rule="nonzero"/></clipPath><clipPath id="e29ef781dd"><path d="M 110 73 L 269 73 L 269 235 L 110 235 Z M 110 73 " clip-rule="nonzero"/></clipPath><clipPath id="d8e2956636"><path d="M 245.390625 50.183594 L 327.0625 131.855469 L 172.207031 286.710938 L 90.535156 205.039062 Z M 245.390625 50.183594 " clip-rule="nonzero"/></clipPath><clipPath id="302c2eb9a5"><path d="M 245.390625 50.183594 L 327.0625 131.855469 L 172.207031 286.710938 L 90.535156 205.039062 Z M 245.390625 50.183594 " clip-rule="nonzero"/></clipPath><clipPath id="b6ea69b92d"><path d="M 261.738281 132.816406 L 266.039062 132.816406 L 266.039062 136.421875 L 261.738281 136.421875 Z M 261.738281 132.816406 " clip-rule="nonzero"/></clipPath><clipPath id="766926ef94"><path d="M 266.023438 134.101562 C 264.074219 137.101562 262.351562 136.574219 261.898438 135.898438 C 261.523438 135.300781 261.898438 133.425781 262.5 132.976562 C 263.023438 132.523438 265.425781 133.199219 265.425781 133.199219 " clip-rule="nonzero"/></clipPath><clipPath id="27d8f93bfa"><path d="M 241.171875 110.234375 L 251.503906 110.234375 L 251.503906 123.523438 L 241.171875 123.523438 Z M 241.171875 110.234375 " clip-rule="nonzero"/></clipPath><clipPath id="2212529954"><path d="M 241.273438 120.523438 C 245.925781 112.199219 246.824219 110.773438 247.875 110.398438 C 248.773438 110.101562 250.273438 110.25 250.875 110.773438 C 251.398438 111.375 251.625 113.023438 251.25 113.773438 C 251.023438 114.375 250.050781 114.976562 249.375 115.050781 C 248.699219 115.050781 247.648438 114.601562 247.199219 114.148438 C 246.824219 113.773438 246.601562 113.175781 246.675781 112.648438 C 246.675781 111.976562 247.050781 110.925781 247.648438 110.550781 C 248.324219 110.175781 250.050781 110.101562 250.648438 110.625 C 251.25 111.148438 251.625 112.351562 251.398438 113.550781 C 251.023438 115.875 246.824219 121.875 244.949219 123.074219 C 243.976562 123.601562 243 123.601562 242.324219 123.375 C 241.875 123.148438 241.425781 122.625 241.273438 122.101562 C 241.125 121.648438 241.273438 120.523438 241.273438 120.523438 " clip-rule="nonzero"/></clipPath></defs><g clip-path="url(#d1f1d74821)"><g clip-path="url(#4c972f9222)"><path fill="#000000" d="M 85.445312 4.84375 L 289.554688 4.84375 L 289.554688 370.003906 L 85.445312 370.003906 Z M 85.445312 4.84375 " fill-opacity="1" fill-rule="nonzero"/></g></g><g clip-path="url(#7106aa4206)"><g clip-path="url(#123449a1cb)"><path stroke-linecap="butt" transform="matrix(0.75, 0, 0, 0.75, 85.446474, 4.842866)" fill="none" stroke-linejoin="miter" d="M 136.071386 0.0011792 L 272.139112 243.537669 L 136.071386 487.079367 L -0.00154879 243.537669 Z M 136.071386 0.0011792 " stroke="#ffffff" stroke-width="20" stroke-opacity="1" stroke-miterlimit="4"/></g></g><g clip-path="url(#e29ef781dd)"><g clip-path="url(#d8e2956636)"><g clip-path="url(#302c2eb9a5)"><path fill="#ffffff" d="M 120.742188 234.992188 L 145.554688 221.042969 L 167.402344 223.058594 L 151.808594 218.160156 C 151.808594 218.160156 169.417969 201.539062 174.890625 202.238281 C 180.363281 202.9375 235.5 222.933594 236.941406 220.753906 C 238.382812 218.574219 178.964844 196.601562 178.964844 196.601562 C 178.964844 196.601562 192.503906 170.882812 206.945312 159.238281 C 221.386719 147.59375 218.382812 148.867188 218.382812 148.867188 C 218.382812 148.867188 229.578125 148.785156 233.730469 146.277344 C 233.730469 146.277344 223.527344 144.632812 222.292969 143.808594 C 221.058594 142.984375 241.550781 121.671875 244.226562 115.703125 C 246.898438 109.738281 266.980469 85.460938 268.253906 73.15625 L 249.945312 95.832031 L 248.667969 94.0625 L 247.394531 100.769531 C 247.394531 100.769531 203.902344 154.710938 192.75 159.445312 L 177.609375 117.96875 C 177.609375 117.96875 185.261719 162.078125 187.03125 166.070312 C 188.839844 170.101562 162.175781 202.277344 153.453125 203.757812 C 153.453125 203.757812 123.292969 187.507812 120.742188 189.5625 L 150.410156 208.285156 L 110.289062 225.199219 Z M 120.742188 234.992188 " fill-opacity="1" fill-rule="nonzero"/></g></g></g><g clip-path="url(#b6ea69b92d)"><g clip-path="url(#766926ef94)"><path fill="#000000" d="M 258.898438 129.976562 L 269.03125 129.976562 L 269.03125 139.800781 L 258.898438 139.800781 Z M 258.898438 129.976562 " fill-opacity="1" fill-rule="nonzero"/></g></g><g clip-path="url(#27d8f93bfa)"><g clip-path="url(#2212529954)"><path fill="#000000" d="M 238.273438 107.398438 L 254.398438 107.398438 L 254.398438 126.359375 L 238.273438 126.359375 Z M 238.273438 107.398438 " fill-opacity="1" fill-rule="nonzero"/></g></g></svg>